<svg width="16" height="15" viewBox="0 0 16 15" fill="none" xmlns="http://www.w3.org/2000/svg">
<path d="M13.251 0H3.55099C2.85898 0.00988775 2.19828 0.289998 1.71003 0.780489C1.22179 1.27098 0.944705 1.93296 0.937988 2.625L0.937988 12.45C0.960404 13.1299 1.24469 13.7748 1.73144 14.25C2.2182 14.7252 2.86976 14.9939 3.54999 15H8.77399V9.675H7.28099V7.425H8.77399V6C8.77227 5.63603 8.84252 5.27531 8.98068 4.93857C9.11884 4.60184 9.3222 4.29573 9.57905 4.03785C9.83591 3.77997 10.1412 3.5754 10.4774 3.43591C10.8136 3.29641 11.174 3.22473 11.538 3.225H13.329V5.475H11.538C11.3823 5.48532 11.2356 5.55185 11.1252 5.66221C11.0148 5.77258 10.9483 5.91926 10.938 6.075V7.5H12.878V9.75H11.013V15H13.326C14.0178 14.9899 14.6783 14.7096 15.1663 14.2192C15.6543 13.7287 15.9313 13.0669 15.938 12.375V2.625C15.9021 1.92981 15.6056 1.27365 15.1077 0.787196C14.6097 0.300742 13.9468 0.0196871 13.251 0Z" fill="black"/>
</svg>
