<svg width="16" height="15" viewBox="0 0 16 15" fill="none" xmlns="http://www.w3.org/2000/svg">
<path d="M5.10499 15C4.00016 14.9989 2.94088 14.5596 2.15964 13.7783C1.37841 12.9971 0.939047 11.9378 0.937988 10.833L0.937988 4.167C0.939311 3.06225 1.37876 2.00312 2.15994 1.22195C2.94111 0.44077 4.00024 0.00132321 5.10499 0L11.771 0C12.8757 0.00132321 13.9349 0.44077 14.716 1.22195C15.4972 2.00312 15.9367 3.06225 15.938 4.167V10.834C15.9367 11.9387 15.4972 12.9977 14.716 13.7787C13.9348 14.5597 12.8756 14.9989 11.771 15H5.10499ZM4.27099 7.5C4.27079 8.3242 4.51501 9.12994 4.97277 9.81533C5.43052 10.5007 6.08125 11.035 6.84265 11.3505C7.60406 11.6661 8.44193 11.7487 9.25032 11.5881C10.0587 11.4274 10.8013 11.0306 11.3841 10.4479C11.967 9.86514 12.364 9.12265 12.5248 8.31431C12.6857 7.50596 12.6033 6.66807 12.2879 5.90659C11.9725 5.14511 11.4384 4.49426 10.7532 4.03634C10.0679 3.57842 9.26219 3.334 8.43799 3.334C7.33341 3.33532 6.27444 3.77463 5.49329 4.55559C4.71214 5.33656 4.27258 6.39542 4.27099 7.5ZM12.605 2.5C12.6052 2.66467 12.6542 2.82558 12.7458 2.96241C12.8374 3.09925 12.9675 3.20586 13.1197 3.26878C13.2718 3.33171 13.4392 3.34812 13.6007 3.31594C13.7622 3.28377 13.9106 3.20446 14.027 3.08802C14.1434 2.97158 14.2228 2.82325 14.2549 2.66176C14.2871 2.50026 14.2707 2.33286 14.2078 2.18069C14.1448 2.02852 14.0382 1.89841 13.9014 1.8068C13.7646 1.7152 13.6037 1.6662 13.439 1.666C13.2178 1.666 13.0057 1.75387 12.8493 1.91027C12.6929 2.06668 12.605 2.27881 12.605 2.5ZM5.93799 7.5C5.93799 7.00555 6.08461 6.5222 6.35931 6.11107C6.63402 5.69995 7.02446 5.37952 7.48128 5.1903C7.9381 5.00108 8.44076 4.95157 8.92571 5.04804C9.41067 5.1445 9.85612 5.3826 10.2058 5.73223C10.5554 6.08186 10.7935 6.52732 10.89 7.01227C10.9864 7.49723 10.9369 7.99989 10.7477 8.45671C10.5585 8.91352 10.238 9.30397 9.82691 9.57867C9.41579 9.85338 8.93244 10 8.43799 10C7.77495 10 7.13906 9.73661 6.67022 9.26777C6.20138 8.79893 5.93799 8.16304 5.93799 7.5Z" fill="black"/>
</svg>
