<svg width="17" height="17" viewBox="0 0 17 17" fill="none" xmlns="http://www.w3.org/2000/svg">
<path d="M12.75 14.876C12.7498 14.5957 12.8327 14.3217 12.9883 14.0885C13.1439 13.8553 13.3651 13.6736 13.6241 13.5662C13.883 13.4588 14.1679 13.4306 14.4428 13.4851C14.7178 13.5397 14.9704 13.6746 15.1686 13.8727C15.3669 14.0708 15.502 14.3233 15.5567 14.5982C15.6115 14.8731 15.5835 15.1581 15.4762 15.417C15.369 15.676 15.1874 15.8974 14.9544 16.0531C14.7213 16.2089 14.4473 16.292 14.167 16.292C13.7916 16.2912 13.4318 16.1418 13.1663 15.8765C12.9007 15.6111 12.7511 15.2514 12.75 14.876ZM4.96001 14.876C4.96001 14.596 5.04305 14.3222 5.19865 14.0893C5.35424 13.8565 5.57539 13.675 5.83413 13.5678C6.09287 13.4606 6.37758 13.4326 6.65226 13.4872C6.92693 13.5419 7.17924 13.6767 7.37727 13.8748C7.5753 14.0728 7.71016 14.3251 7.7648 14.5998C7.81944 14.8744 7.7914 15.1592 7.68422 15.4179C7.57705 15.6766 7.39556 15.8978 7.16269 16.0534C6.92983 16.209 6.65607 16.292 6.37601 16.292C6.00045 16.2918 5.64034 16.1425 5.37468 15.877C5.10903 15.6116 4.96054 15.2516 4.96001 14.876ZM4.74601 10.332L3.56201 4.41902C3.56201 4.40002 3.55401 4.38002 3.55101 4.36002L2.96101 1.41502H0.708008C0.52497 1.40813 0.351723 1.33058 0.224661 1.19865C0.0975986 1.06672 0.0266113 0.890684 0.0266113 0.707517C0.0266113 0.52435 0.0975986 0.348311 0.224661 0.216382C0.351723 0.0844519 0.52497 0.00689996 0.708008 1.73374e-05H3.54101C3.70559 -0.00113322 3.86545 0.0550143 3.99317 0.158831C4.12089 0.262648 4.20851 0.407667 4.24101 0.569017L4.83601 3.54102H16.296C16.4006 3.54052 16.504 3.56316 16.5988 3.60732C16.6936 3.65147 16.7774 3.71606 16.8443 3.79644C16.9112 3.87682 16.9595 3.971 16.9858 4.07224C17.012 4.17348 17.0155 4.27927 16.996 4.38202L15.862 10.325C15.8624 10.327 15.8624 10.329 15.862 10.331C15.7668 10.8133 15.5069 11.2475 15.127 11.5594C14.7471 11.8713 14.2706 12.0415 13.779 12.041H6.82801C6.33668 12.0412 5.8605 11.8709 5.48066 11.5593C5.10081 11.2477 4.84182 10.8139 4.74601 10.332ZM6.13601 10.055C6.16814 10.2183 6.25667 10.3651 6.3861 10.4696C6.51554 10.5742 6.67763 10.6299 6.84401 10.627H13.77C13.9336 10.627 14.0922 10.5703 14.2187 10.4665C14.3452 10.3628 14.4319 10.2184 14.464 10.058L15.436 4.95802H5.11501L6.13601 10.055Z" fill="black"/>
</svg>
