<svg width="16" height="12" viewBox="0 0 16 12" fill="none" xmlns="http://www.w3.org/2000/svg">
<path d="M15.938 1.4402C15.3771 1.69074 14.7806 1.85267 14.17 1.9202C14.8023 1.53719 15.2776 0.94166 15.511 0.240198C14.9084 0.593823 14.2478 0.837609 13.56 0.960198C13.1413 0.518173 12.6009 0.210411 12.0071 0.0759324C11.4134 -0.0585466 10.793 -0.0136859 10.2248 0.204827C9.65654 0.423339 9.16598 0.805663 8.8153 1.30332C8.46462 1.80098 8.2696 2.39157 8.25499 3.0002C8.24497 3.24181 8.26547 3.48372 8.31599 3.7202C7.09473 3.66649 5.89858 3.35545 4.80585 2.80745C3.71312 2.25945 2.74845 1.48684 1.97499 0.540198C1.70604 1.01697 1.55934 1.55292 1.54799 2.1002C1.54691 2.59815 1.66874 3.08867 1.90266 3.52826C2.13659 3.96785 2.47538 4.34292 2.88899 4.6202C2.41819 4.57229 1.962 4.42942 1.54799 4.2002V4.2602C1.55544 4.97168 1.80828 5.65877 2.26378 6.20537C2.71929 6.75197 3.34952 7.12457 4.04799 7.2602C3.78891 7.32943 3.52295 7.36968 3.25499 7.3802C3.0499 7.38723 2.84478 7.36705 2.64499 7.3202C2.8385 7.92879 3.22038 8.46015 3.73551 8.8376C4.25064 9.21505 4.87238 9.41907 5.51099 9.4202C4.42037 10.2885 3.06396 10.7546 1.66999 10.7402C1.42446 10.7501 1.17863 10.7299 0.937988 10.6802C2.351 11.5497 3.97891 12.0069 5.63799 12.0002C6.78412 12.018 7.92234 11.8076 8.98644 11.3815C10.0505 10.9553 11.0193 10.3218 11.8363 9.51782C12.6533 8.71382 13.3023 7.75539 13.7455 6.69828C14.1887 5.64116 14.4173 4.50647 14.418 3.3602V2.9402C15.0239 2.55194 15.5417 2.04095 15.938 1.4402Z" fill="black"/>
</svg>
