<svg width="15" height="17" viewBox="0 0 15 17" fill="none" xmlns="http://www.w3.org/2000/svg">
<path d="M13.332 15.833V14.166C13.332 13.503 13.0687 12.8673 12.5999 12.3984C12.131 11.9296 11.4951 11.666 10.832 11.666H4.16602C3.50297 11.666 2.86703 11.9296 2.39819 12.3984C1.92935 12.8673 1.66602 13.503 1.66602 14.166V15.833C1.66602 16.0539 1.57834 16.2657 1.42212 16.4219C1.2659 16.5781 1.05393 16.666 0.833008 16.666C0.723533 16.6661 0.615096 16.6448 0.513916 16.603C0.412736 16.5612 0.320865 16.4997 0.243408 16.4224C0.165951 16.345 0.104425 16.253 0.0625 16.1519C0.0205753 16.0507 -0.000976641 15.9425 -0.000976562 15.833V14.166C0.000347145 13.0614 0.439741 12.0022 1.22095 11.2212C2.00215 10.4402 3.06136 10.0011 4.16602 10H10.832C11.9367 10.0011 12.9959 10.4402 13.7771 11.2212C14.5583 12.0022 14.9977 13.0614 14.999 14.166V15.833C14.999 15.9425 14.9775 16.0507 14.9355 16.1519C14.8936 16.253 14.8321 16.345 14.7546 16.4224C14.6772 16.4997 14.5853 16.5612 14.4841 16.603C14.383 16.6448 14.2745 16.6661 14.165 16.666C13.9441 16.666 13.7321 16.5781 13.5759 16.4219C13.4197 16.2657 13.332 16.0539 13.332 15.833ZM3.33203 4.16699C3.33336 3.06216 3.77302 2.00322 4.55444 1.22217C5.33587 0.441121 6.39517 0.00177042 7.5 0.000976562C8.60466 0.00230027 9.66356 0.441939 10.4446 1.22314C11.2256 2.00435 11.665 3.06331 11.666 4.16797C11.665 5.27254 11.2256 6.33175 10.4446 7.11279C9.66353 7.89384 8.60457 8.33293 7.5 8.33398C6.39543 8.33293 5.33647 7.89384 4.55542 7.11279C3.77437 6.33175 3.33504 5.27254 3.33398 4.16797L3.33203 4.16699ZM4.99805 4.16699C4.99805 4.83003 5.26138 5.46573 5.73022 5.93457C6.19907 6.40341 6.83501 6.66699 7.49805 6.66699C8.16109 6.66699 8.79703 6.40341 9.26587 5.93457C9.73471 5.46573 9.99805 4.83003 9.99805 4.16699C9.99805 3.50395 9.73471 2.86826 9.26587 2.39941C8.79703 1.93057 8.16109 1.66699 7.49805 1.66699C6.83518 1.66752 6.19964 1.93139 5.7312 2.40039C5.26276 2.86939 4.99973 3.5051 5 4.16797L4.99805 4.16699Z" fill="black"/>
</svg>
